# xmcd
#
# Track frame offsets:
#	1732
#	10415
#	26305
#	43680
#	61347
#	78537
#	93617
#	114682
#	127792
#	141137
#	161555
#	178815
#	193540
#	218240
#	231532
#	243847
#	262187
#	277115
#
# Disc length: 3944
#
# Revision: 2
# Processed by: cddbd v1.5.1PL0 Copyright (c) Steve Scherf et al.
# Submitted via: CD-Runner 7.0
# Normalized: r1:TDELIM( - )
#
DISCID=0a0f5112
DTITLE=Various Artist - 18 Soul Classics - Vol. 3
DYEAR=1900
DGENRE=
TTITLE0=Box Tops - The Letter
TTITLE1=The Drifters - Kissing in the Back Row
TTITLE2=Johnny Bristol - Hang On In There Baby
TTITLE3=Peaches and Herb - Reunited
TTITLE4=Gladys Knight and Pips - Best Thing That Ever Happened to Me
TTITLE5=The Delfonics - Didn`t I Blow Your Mind This Time
TTITLE6=Billy Paul - Me and Mrs. Jones
TTITLE7=Sly and The Family Stone - Running Away
TTITLE8=O`Jays - Love Train
TTITLE9=Esther Phillips - What A Difference A Day Makes -
TTITLE10=The Stylistics - Betcha By Golly Wow
TTITLE11=Jame and Bobby Purify - I`m Your Puppet
TTITLE12=Isley Brothers - That Lady
TTITLE13=Johnny Nash - I Can See Clearly Now
TTITLE14=Billy Ocean - I.O.D. (Love on Delivery)
TTITLE15=Barry White - Can`t Get Enough Of Your Love Babe
TTITLE16=Donnie Elbert - Where Did Our Love Go
TTITLE17=James Brown - Get Up Offa That Thing
EXTD=one in a set of four\n\nPickwick Music - PMP 106
EXTT0=
EXTT1=
EXTT2=
EXTT3=
EXTT4=
EXTT5=
EXTT6=
EXTT7=
EXTT8=
EXTT9=
EXTT10=
EXTT11=
EXTT12=
EXTT13=
EXTT14=
EXTT15=
EXTT16=
EXTT17=
PLAYORDER=
